# xmcd
#
# Track frame offsets:
#	150
#	20457
#	38410
#	59288
#	81302
#	103280
#	127256
#	139722
#	158882
#	180586
#
# Disc length: 2545 seconds
#
# Revision: 1
# Processed by: cddbd v1.5.1PL0 Copyright (c) Steve Scherf et al.
# Submitted via: audiograbber 1.83.01
#
DISCID=8409ef0a
DTITLE=Jackson Square Players - Live in Jackson Square
DYEAR=2000
DGENRE=Blues
TTITLE0=Down by the Riverside
TTITLE1=Amazing Grace
TTITLE2=Basin St. Blues
TTITLE3=That's Aplenty
TTITLE4=Bourbon St. Parade
TTITLE5=Just a Closer Walk
TTITLE6=Royal Garden Blues
TTITLE7=Sweet Georgia Brown
TTITLE8=What a Wonderful World
TTITLE9=When the Saints Go Marching In
EXTD=Produced By: Three Days Ahead Records\nFeaturing - Mikiel: Saxophones, Bas
EXTD=s Flue, Clarinet\nAndy: Bass\nPaul: Guitar
EXTT0=
EXTT1=
EXTT2=
EXTT3=
EXTT4=
EXTT5=
EXTT6=
EXTT7=
EXTT8=
EXTT9=
PLAYORDER=
